<?xml version="1.0" encoding="UTF-8" standalone="no"?>
<!-- Created with Inkscape (http://www.inkscape.org/) -->

<svg
   width="474mm"
   height="329mm"
   viewBox="0 0 474 329"
   version="1.1"
   id="svg1"
   xmlns="http://www.w3.org/2000/svg"
   xmlns:svg="http://www.w3.org/2000/svg">
  <defs
     id="defs1" />
  <g
     id="layer1">
    <path
       fill-rule="evenodd"
       fill="rgb(5.447388%, 5.892944%, 5.529785%)"
       fill-opacity="1"
       d="m 70.54467,0.53487593 h 399.09296 c 2.36265,0 4.27881,1.91822907 4.27881,4.28087607 V 259.00075 c 0,1.18028 -0.47956,2.25205 -1.25161,3.02411 l -66.42695,66.42385 c -0.83614,0.83611 -1.93064,1.25368 -3.02411,1.25368 H 4.1197872 c -2.36265,0 -4.27880996,-1.91513 -4.27880996,-4.27778 V 71.239603 c 0,-1.18029 0.47956,-2.252059 1.25366996,-3.024105 L 67.519533,1.788546 C 68.354624,0.95552393 69.449131,0.53694493 70.54467,0.53694493 Z M 77.484816,21.569251 H 105.32498 L 117.80174,9.0935273 h 347.5581 V 146.188 l -12.47777,12.47779 v 93.39481 l -56.60845,56.60741 H 368.43244 L 355.9567,321.14579 H 8.3985972 V 184.04927 L 20.875357,171.57456 V 78.178714 L 77.484816,21.569251"
       id="path45"
       style="fill:#ffffff;fill-opacity:1;stroke-width:0.264583" />
  </g>
</svg>
