<?xml version="1.0" encoding="UTF-8" standalone="no"?>
<!-- Created with Inkscape (http://www.inkscape.org/) -->

<svg
   width="474mm"
   height="332mm"
   viewBox="0 0 474 332"
   version="1.1"
   id="svg1"
   xmlns="http://www.w3.org/2000/svg"
   xmlns:svg="http://www.w3.org/2000/svg">
  <defs
     id="defs1" />
  <g
     id="layer1">
    <path
       fill-rule="evenodd"
       fill="#0d0f0e"
       fill-opacity="1"
       d="M 265.95318,319.32816 H 448.53221 V 83.2702 L 388.18033,22.91834 H 12.563998 v 232.299 H 199.28437 c 1.70635,0 3.25149,0.6935 4.36769,1.81279 z M 87.602309,318.31528 H 57.655818 L 20.263785,280.55635 h 29.946494 z m 46.857081,0 H 104.5129 L 67.119839,280.55635 h 29.947526 z m 46.86226,0 h -29.94856 l -37.38997,-37.75893 h 29.94753 z m 46.86226,0 h -29.94753 l -37.39099,-37.75893 h 29.94546 z M 442.30106,46.18823 395.70235,-0.40943956 H 342.34643 L 331.48613,10.55733 H 6.3824633 c -3.413744,0 -6.18153394,2.7678 -6.18153394,6.1805 v 244.65999 c 0,3.41583 2.76778994,6.18361 6.18153394,6.18361 H 196.72225 l 61.4557,61.45154 c 1.11619,1.60612 2.97344,2.65721 5.07669,2.65721 h 191.45805 c 3.41273,0 6.18051,-2.76778 6.18051,-6.18154 V 147.25906 l 13.61054,-13.47722 V 78.39091 L 442.30106,46.18823"
       id="path46"
       style="fill:#ffffff;fill-opacity:1;stroke-width:0.264583" />
  </g>
</svg>
